<?xml version="1.0" encoding="utf-8"?>
<!-- Generator: Adobe Illustrator 24.0.0, SVG Export Plug-In . SVG Version: 6.00 Build 0)  -->
<svg version="1.1" id="惧01" xmlns="http://www.w3.org/2000/svg" xmlns:xlink="http://www.w3.org/1999/xlink" x="0px" y="0px"
	 viewBox="0 0 612 792" style="enable-background:new 0 0 612 792;" xml:space="preserve">
<g>
	<path d="M350,200.5c-2.4,24.1-2.9,48.8-1,73.7c1.1,13.6,2.9,27.2,5.5,40.7c24.1-42.7,59.2-69.6,95.1-86.4
		c36.4-17,76.2-25.1,114.3-28c-2.8,1.8-8.4,5.6-16.9,11.6c-8.5,6-19.4,14-32,24.1c-12.5,10-26.4,21.9-40.6,35.6
		c-14.2,13.7-28.7,29.3-42.5,46.6c-14.7,18.4-28.4,38.7-40.4,60.8c-3.5,6.5-6.8,13.1-9.9,19.8c3.1,6.7,6.4,13.3,9.9,19.8
		c11.9,22.1,25.7,42.4,40.4,60.8c13.8,17.3,28.3,32.9,42.5,46.6c14.2,13.7,28.1,25.6,40.6,35.6c12.6,10.1,23.6,18.1,32,24.1
		c8.5,6,14.1,9.7,16.9,11.6c-38.1-2.9-78-10.9-114.3-28c-35.9-16.8-71-43.7-95.1-86.4c-2.6,13.5-4.4,27.1-5.5,40.7
		c-2,24.9-1.5,49.6,1,73.7c-13.8-43.6-24.4-91.9-26-140c-0.7-20,0.2-39.6,2.9-58.4c-2.7-18.9-3.6-38.4-2.9-58.4
		C325.6,292.4,336.2,244.1,350,200.5z"/>
	<path d="M48,200.5c38.1,2.9,78,10.9,114.3,28c36.9,17.3,72.9,45.2,97.1,89.9c22,40.7,30.3,88.5,28.6,139
		c-1.6,48.1-12.2,96.4-26,140c2.4-24.1,2.9-48.8,1-73.7c-2-25-6.4-49.9-13.6-74.4c-7.2-24.6-17-48-28.9-70.2
		c-11.9-22.1-25.7-42.4-40.4-60.8c-13.8-17.3-28.3-32.9-42.5-46.6c-14.2-13.7-28.1-25.6-40.6-35.6C84.3,226,73.3,218,64.8,212
		C56.3,206,50.7,202.3,48,200.5z"/>
</g>
</svg>
