<?xml version="1.0" encoding="utf-8"?>
<!-- Generator: Adobe Illustrator 24.0.0, SVG Export Plug-In . SVG Version: 6.00 Build 0)  -->
<svg version="1.1" id="惧01" xmlns="http://www.w3.org/2000/svg" xmlns:xlink="http://www.w3.org/1999/xlink" x="0px" y="0px"
	 viewBox="0 0 32 32" style="enable-background:new 0 0 32 32;" xml:space="preserve">
<g>
	<path d="M18.7,3.7c-0.1,1.5-0.2,3-0.1,4.6c0.1,0.8,0.2,1.7,0.3,2.5c1.5-2.6,3.7-4.3,5.9-5.4c2.3-1.1,4.7-1.6,7.1-1.7
		c-0.2,0.1-0.5,0.3-1,0.7c-0.5,0.4-1.2,0.9-2,1.5c-0.8,0.6-1.6,1.4-2.5,2.2C25.6,9,24.7,9.9,23.8,11c-0.9,1.1-1.8,2.4-2.5,3.8
		c-0.2,0.4-0.4,0.8-0.6,1.2c0.2,0.4,0.4,0.8,0.6,1.2c0.7,1.4,1.6,2.6,2.5,3.8c0.9,1.1,1.8,2,2.6,2.9c0.9,0.8,1.7,1.6,2.5,2.2
		c0.8,0.6,1.5,1.1,2,1.5c0.5,0.4,0.9,0.6,1,0.7c-2.4-0.2-4.8-0.7-7.1-1.7c-2.2-1-4.4-2.7-5.9-5.4c-0.2,0.8-0.3,1.7-0.3,2.5
		c-0.1,1.5-0.1,3.1,0.1,4.6c-0.9-2.7-1.5-5.7-1.6-8.7c0-1.2,0-2.5,0.2-3.6c-0.2-1.2-0.2-2.4-0.2-3.6C17.2,9.4,17.9,6.4,18.7,3.7z"/>
	<path d="M0,3.7c2.4,0.2,4.8,0.7,7.1,1.7c2.3,1.1,4.5,2.8,6,5.6c1.4,2.5,1.9,5.5,1.8,8.6c-0.1,3-0.8,6-1.6,8.7
		c0.1-1.5,0.2-3,0.1-4.6c-0.1-1.6-0.4-3.1-0.8-4.6c-0.4-1.5-1.1-3-1.8-4.4C10,13.4,9.1,12.1,8.2,11C7.3,9.9,6.4,9,5.6,8.1
		S3.8,6.5,3,5.9C2.3,5.3,1.6,4.8,1,4.4C0.5,4,0.2,3.8,0,3.7z"/>
</g>
</svg>
